<?xml version="1.0" encoding="UTF-8" standalone="no"?>
<!DOCTYPE svg PUBLIC "-//W3C//DTD SVG 1.1//EN" "http://www.w3.org/Graphics/SVG/1.1/DTD/svg11.dtd">
<svg width="100%" height="100%" viewBox="0 0 800 800" version="1.1" xmlns="http://www.w3.org/2000/svg" xmlns:xlink="http://www.w3.org/1999/xlink" xml:space="preserve" xmlns:serif="http://www.serif.com/" style="fill-rule:evenodd;clip-rule:evenodd;stroke-linejoin:round;stroke-miterlimit:2;">
    <g id="SVGRepo_iconCarrier">
        <g>
            <path d="M104.272,627.472C95.05,627.472 86.427,625.048 79.061,620.789L296.325,431.442L316.605,449.089C333.578,463.839 354.823,471.308 375.87,471.308C397.02,471.308 418.266,463.839 435.239,449.089L455.509,431.442L529.063,495.564C537.381,481.547 547.717,468.917 559.708,458.005L492.375,399.337L698.402,219.594L698.402,418.163C717.558,421.656 735.52,428.506 751.739,438.084L751.739,195.053C751.739,188.172 751.067,181.363 749.808,174.773C746.409,157.703 738.845,142.083 728.28,129.178C726.045,126.366 723.716,123.848 721.186,121.331C702.47,102.509 676.18,90.769 647.464,90.769L104.272,90.769C75.558,90.769 49.372,102.509 30.55,121.331C28.031,123.848 25.703,126.366 23.469,129.178C12.894,142.083 5.33,157.703 2.036,174.773C0.672,181.363 0,188.172 0,195.053L0,576.556C0,591.192 3.105,605.261 8.634,617.966C13.764,630.094 21.339,641.067 30.55,650.267C32.88,652.597 35.208,654.736 37.727,656.867C55.772,671.806 79.061,680.83 104.272,680.83L542.523,680.83C529.839,665.155 519.967,647.131 513.755,627.47L104.272,627.47L104.272,627.472ZM68.277,159.058C77.592,149.752 90.109,144.119 104.272,144.119L647.467,144.119C661.631,144.119 674.252,149.753 683.463,159.058C685.098,160.716 686.653,162.563 688.027,164.398L403.325,412.527C395.467,419.409 385.763,422.809 375.87,422.809C366.072,422.809 356.377,419.409 348.414,412.527L63.828,164.294C65.087,162.458 66.641,160.716 68.277,159.058ZM53.338,576.558L53.338,219.498L259.375,399.234L53.442,578.781C53.338,578.1 53.338,577.334 53.338,576.558Z" style="fill:rgb(235,113,0);fill-rule:nonzero;"/>
            <path d="M669.195,447.631C741.448,447.631 800,506.192 800,578.436C800,650.667 741.448,709.23 669.195,709.23C596.953,709.23 538.411,650.667 538.411,578.436C538.411,506.194 596.953,447.631 669.195,447.631ZM755.248,512.349C745.759,502.652 730.38,502.652 720.891,512.349L634.99,599.921L613.52,578.028C604.031,568.39 588.646,568.39 579.163,578.028C569.674,587.725 569.674,603.431 579.163,613.069L617.815,652.512C627.304,662.209 642.683,662.209 652.172,652.512L755.248,547.39C764.737,537.692 764.737,521.986 755.248,512.349Z" style="fill:rgb(235,113,0);"/>
            <g id="SVGRepo_iconCarrier1" serif:id="SVGRepo_iconCarrier">
            </g>
        </g>
    </g>
</svg>
